<svg width="22" height="24" viewBox="0 0 22 24" fill="none" xmlns="http://www.w3.org/2000/svg">
<path d="M8.00014 2.28793C8.33269 2.28789 8.66125 2.36042 8.96288 2.50047C9.26451 2.64051 9.53195 2.8447 9.74652 3.09877C9.9611 3.35284 10.1176 3.65068 10.2052 3.97149C10.2928 4.29231 10.3093 4.62837 10.2536 4.95623L12.5082 5.33334C12.595 4.81837 12.593 4.29238 12.5025 3.77807C12.935 3.50726 13.4456 3.38895 13.9531 3.44198C14.4606 3.49501 14.9357 3.71634 15.3028 4.0707C15.6699 4.42507 15.9079 4.89209 15.9788 5.39737C16.0498 5.90266 15.9496 6.41715 15.6942 6.85889H3.42917C3.2518 6.8587 3.07691 6.81722 2.91835 6.73774C2.75978 6.65826 2.6219 6.54296 2.5156 6.40097C2.40931 6.25898 2.33753 6.09419 2.30594 5.91965C2.27436 5.74512 2.28383 5.56563 2.33362 5.39539C2.38341 5.22515 2.47214 5.06884 2.59279 4.93882C2.71345 4.80881 2.86271 4.70867 3.02876 4.64633C3.19481 4.58399 3.3731 4.56115 3.5495 4.57964C3.72591 4.59812 3.89559 4.65741 4.04511 4.75282C4.19904 4.85141 4.37436 4.91164 4.55638 4.92845C4.7384 4.94526 4.92179 4.91815 5.09116 4.84942C5.26054 4.78068 5.41095 4.67232 5.52978 4.53343C5.64861 4.39453 5.73239 4.22916 5.77408 4.05118C5.89206 3.54939 6.17614 3.10218 6.58021 2.78211C6.98429 2.46205 7.48466 2.2879 8.00014 2.28793ZM9.73253 0.341847C8.69988 -0.0817818 7.54787 -0.112726 6.49396 0.254857C5.44006 0.62244 4.55717 1.36312 4.01197 2.33707C3.27834 2.2103 2.52338 2.3258 1.8612 2.66611C1.19903 3.00642 0.665631 3.55304 0.341641 4.22335C0.0176505 4.89366 -0.0793232 5.65122 0.0653777 6.38153C0.210079 7.11184 0.588588 7.77519 1.14369 8.27132V21.7145C1.14369 22.3207 1.38448 22.902 1.8131 23.3306C2.24171 23.7592 2.82303 24 3.42917 24H14.8566C15.4627 24 16.044 23.7592 16.4727 23.3306C16.9013 22.902 17.1421 22.3207 17.1421 21.7145H19.4275C20.0337 21.7145 20.615 21.4737 21.0436 21.0451C21.4722 20.6165 21.713 20.0352 21.713 19.429V11.4299C21.713 10.8237 21.4722 10.2424 21.0436 9.81378C20.615 9.38517 20.0337 9.14437 19.4275 9.14437H17.1421V8.73985C17.8524 7.93553 18.2572 6.90691 18.2854 5.83416C18.3137 4.76142 17.9636 3.71294 17.2964 2.87237C16.6293 2.03181 15.6877 1.45275 14.6366 1.23663C13.5855 1.02051 12.4918 1.1811 11.5472 1.69028C11.0644 1.0963 10.4405 0.632711 9.73253 0.341847ZM17.1421 19.429V11.4299H19.4275V19.429H17.1421ZM5.71466 11.4299H8.00014V19.429H5.71466V11.4299ZM10.2856 11.4299H12.5711V19.429H10.2856V11.4299Z" fill="white"/>
</svg>
