<svg width="23" height="24" viewBox="0 0 23 24" fill="none" xmlns="http://www.w3.org/2000/svg">
<path d="M22.8 1.2V3.6C22.8 5.82782 21.915 7.96439 20.3397 9.5397C18.7644 11.115 16.6278 12 14.4 12H13.2V13.2H19.2V21.6C19.2 22.2365 18.9471 22.847 18.4971 23.2971C18.047 23.7471 17.4365 24 16.8 24H7.2C6.56348 24 5.95303 23.7471 5.50294 23.2971C5.05286 22.847 4.8 22.2365 4.8 21.6V13.2H10.8V9.6C10.8 7.37218 11.685 5.23561 13.2603 3.66031C14.8356 2.085 16.9722 1.2 19.2 1.2H22.8ZM4.2 2.95111e-06C5.63997 -0.00116382 7.05914 0.343663 8.33803 1.00545C9.61691 1.66724 10.7181 2.62662 11.5488 3.8028C10.2816 5.46948 9.59686 7.50627 9.6 9.6V10.8H9C6.61305 10.8 4.32387 9.85179 2.63604 8.16396C0.948211 6.47614 0 4.18695 0 1.8V2.95111e-06H4.2Z" fill="white"/>
</svg>
