<svg width="25" height="24" viewBox="0 0 25 24" fill="none" xmlns="http://www.w3.org/2000/svg">
<path d="M11.6306 24C10.8552 24 10.0742 23.9121 9.28753 23.7364C8.50088 23.5606 7.6959 23.3078 6.8726 22.9779C7.15455 20.1349 7.97692 17.4798 9.33969 15.0128C10.7025 12.5457 12.4529 10.3723 14.5911 8.49259C12.0065 9.80837 9.76873 11.5471 7.87776 13.7087C5.9868 15.8704 4.66491 18.3374 3.9121 21.11C3.81811 21.0395 3.73024 20.9634 3.64847 20.8816L3.38343 20.6166C2.27912 19.5123 1.43937 18.2787 0.864185 16.9159C0.289002 15.5532 0.000939843 14.1316 0 12.6514C0 11.0537 0.317197 9.52642 0.951591 8.06966C1.58598 6.61291 2.46709 5.32062 3.5949 4.19281C5.49808 2.28963 7.96517 1.05045 10.9962 0.475265C14.0272 -0.0999191 18.2799 -0.153021 23.7545 0.315961C24.1775 5.93152 24.107 10.2139 23.5431 13.1631C22.9792 16.1124 21.7574 18.5264 19.8777 20.4051C18.7264 21.5564 17.4397 22.4436 16.0177 23.0667C14.5958 23.6899 13.1334 24.0009 11.6306 24Z" fill="white"/>
</svg>
