<svg width="24" height="24" viewBox="0 0 24 24" fill="none" xmlns="http://www.w3.org/2000/svg">
<path d="M10.4231 0.000133979C6.2681 -0.0199695 3.84651 2.22641 3.7628 3.97392C5.48675 3.79242 7.99932 3.84232 8.25092 5.96777C7.06368 4.87244 5.42118 4.84532 3.90053 5.04239C-2.81247 5.91241 0.0875788 15.3895 5.47211 13.4745C5.90681 14.4496 6.25398 17.0646 8.22267 17.2343C10.1299 17.3987 10.08 18.5925 10.3759 20.8459C10.6208 22.7115 13.5089 23.7463 14.8843 24C14.8843 24 12.4858 19.8788 14.2478 18.0472C18.8176 11.806 12.8447 8.49797 9.23465 9.53819C6.77842 10.2459 7.38477 11.738 9.00841 13.3489C6.66208 12.4958 6.43141 11.396 6.49847 10.2764C6.60687 8.4675 10.0174 7.10057 12.2264 7.57651C17.7938 8.77601 19.0877 12.8421 15.5248 17.8526C19.1639 19.2957 23.856 17.4934 23.9224 14.5199C23.9639 12.6653 22.8167 11.1673 21.2705 10.6718C19.8674 10.299 19.2623 10.9445 18.786 11.8941C18.6485 10.8552 19.6952 9.08097 21.0267 9.9716C21.6505 4.31202 19.6004 0.0445162 10.4231 0.000133979Z" fill="white"/>
</svg>
