<svg width="24" height="24" viewBox="0 0 24 24" fill="none" xmlns="http://www.w3.org/2000/svg">
<path fill-rule="evenodd" clip-rule="evenodd" d="M12.592 0.245213C12.435 0.0882058 12.222 0 12 0C11.778 0 11.565 0.0882058 11.408 0.245213C11.251 0.40222 11.1628 0.615168 11.1628 0.837209V1.95349C11.1628 2.17553 11.251 2.38848 11.408 2.54549C11.565 2.70249 11.778 2.7907 12 2.7907C12.222 2.7907 12.435 2.70249 12.592 2.54549C12.749 2.38848 12.8372 2.17553 12.8372 1.95349V0.837209C12.8372 0.615168 12.749 0.40222 12.592 0.245213ZM4.10679 3.27032C3.88493 3.27032 3.67214 3.35838 3.51516 3.51516C3.35838 3.67214 3.27032 3.88493 3.27032 4.10679C3.27032 4.32865 3.35838 4.54144 3.51516 4.69842L3.95386 5.13712C4.11183 5.28955 4.32335 5.37384 4.54287 5.37183C4.76238 5.36982 4.97232 5.28167 5.12747 5.12637C5.28263 4.97107 5.37058 4.76104 5.37238 4.54153C5.37418 4.32201 5.2897 4.11057 5.13712 3.95274L4.69842 3.51516C4.54144 3.35838 4.32865 3.27032 4.10679 3.27032ZM20.7297 4.10679C20.7297 3.88493 20.6416 3.67214 20.4848 3.51516C20.3279 3.35838 20.1151 3.27032 19.8932 3.27032C19.6713 3.27032 19.4586 3.35838 19.3016 3.51516L18.8629 3.95386C18.715 4.11257 18.6345 4.32248 18.6383 4.53937C18.6421 4.75627 18.73 4.96321 18.8834 5.1166C19.0368 5.26999 19.2437 5.35786 19.4606 5.36168C19.6775 5.36551 19.8874 5.285 20.0461 5.13712L20.4848 4.69842C20.6416 4.54144 20.7297 4.32865 20.7297 4.10679ZM0.245213 11.408C0.0882058 11.565 0 11.778 0 12C0 12.222 0.0882058 12.435 0.245213 12.592C0.40222 12.749 0.615168 12.8372 0.837209 12.8372H1.95349C2.17553 12.8372 2.38848 12.749 2.54549 12.592C2.70249 12.435 2.7907 12.222 2.7907 12C2.7907 11.778 2.70249 11.565 2.54549 11.408C2.38848 11.251 2.17553 11.1628 1.95349 11.1628H0.837209C0.615168 11.1628 0.40222 11.251 0.245213 11.408ZM21.4545 11.408C21.2975 11.565 21.2093 11.778 21.2093 12C21.2093 12.222 21.2975 12.435 21.4545 12.592C21.6115 12.749 21.8245 12.8372 22.0465 12.8372H23.1628C23.3848 12.8372 23.5978 12.749 23.7548 12.592C23.9118 12.435 24 12.222 24 12C24 11.778 23.9118 11.565 23.7548 11.408C23.5978 11.251 23.3848 11.1628 23.1628 11.1628H22.0465C21.8245 11.1628 21.6115 11.251 21.4545 11.408ZM19.4545 18.618C19.2327 18.618 19.0199 18.7061 18.8629 18.8629C18.7061 19.0199 18.618 19.2327 18.618 19.4545C18.618 19.6764 18.7061 19.8892 18.8629 20.0461L19.3016 20.4848C19.3782 20.5671 19.4707 20.6331 19.5734 20.6788C19.6761 20.7246 19.7869 20.7492 19.8993 20.7512C20.0117 20.7532 20.1234 20.7325 20.2276 20.6904C20.3319 20.6483 20.4266 20.5856 20.5061 20.5061C20.5856 20.4266 20.6483 20.3319 20.6904 20.2276C20.7325 20.1234 20.7532 20.0117 20.7512 19.8993C20.7492 19.7869 20.7246 19.6761 20.6788 19.5734C20.6331 19.4707 20.5671 19.3782 20.4848 19.3016L20.0461 18.8629C19.8892 18.7061 19.6764 18.618 19.4545 18.618ZM5.38196 19.4545C5.38196 19.2327 5.2939 19.0199 5.13712 18.8629C5.05937 18.7851 4.96705 18.7234 4.86544 18.6813C4.76383 18.6392 4.65492 18.6175 4.54493 18.6175C4.43494 18.6175 4.32603 18.6392 4.22442 18.6813C4.12281 18.7234 4.03049 18.7851 3.95274 18.8629L3.51516 19.3016C3.43291 19.3782 3.36693 19.4707 3.32117 19.5734C3.27542 19.6761 3.25081 19.7869 3.24883 19.8993C3.24684 20.0117 3.26752 20.1234 3.30963 20.2276C3.35174 20.3319 3.41441 20.4266 3.49391 20.5061C3.57341 20.5856 3.66811 20.6483 3.77236 20.6904C3.8766 20.7325 3.98826 20.7532 4.10068 20.7512C4.21309 20.7492 4.32395 20.7246 4.42665 20.6788C4.52934 20.6331 4.62177 20.5671 4.69842 20.4848L5.13712 20.0461C5.2939 19.8892 5.38196 19.6764 5.38196 19.4545ZM12.592 21.4545C12.435 21.2975 12.222 21.2093 12 21.2093C11.778 21.2093 11.565 21.2975 11.408 21.4545C11.251 21.6115 11.1628 21.8245 11.1628 22.0465V23.1628C11.1628 23.3848 11.251 23.5978 11.408 23.7548C11.565 23.9118 11.778 24 12 24C12.222 24 12.435 23.9118 12.592 23.7548C12.749 23.5978 12.8372 23.3848 12.8372 23.1628V22.0465C12.8372 21.8245 12.749 21.6115 12.592 21.4545ZM16.736 16.736C17.992 15.4799 18.6977 13.7763 18.6977 12C18.6977 10.2237 17.992 8.52009 16.736 7.26403C15.4799 6.00797 13.7763 5.30233 12 5.30233C10.2237 5.30233 8.52009 6.00797 7.26403 7.26403C6.00797 8.52009 5.30233 10.2237 5.30233 12C5.30233 13.7763 6.00797 15.4799 7.26403 16.736C8.52009 17.992 10.2237 18.6977 12 18.6977C13.7763 18.6977 15.4799 17.992 16.736 16.736Z" fill="white"/>
</svg>
