<svg width="23" height="24" viewBox="0 0 23 24" fill="none" xmlns="http://www.w3.org/2000/svg">
<path fill-rule="evenodd" clip-rule="evenodd" d="M12.0117 0.402888C11.823 0.149385 11.5256 0 11.2096 0C10.8936 0 10.5961 0.149385 10.4074 0.402888L8.48444 2.98622L3.93309 3.4015C3.5177 3.4394 3.16947 3.73115 3.0594 4.13347C2.94933 4.5358 3.10054 4.96419 3.43877 5.20827L5.17261 6.45946C2.05623 8.16922 0 11.1982 0 14.5089C0 19.7475 5.14721 23.994 11.497 23.994C17.8468 23.994 22.994 19.7475 22.994 14.5089C22.994 11.0096 20.697 8.06718 17.2791 6.43597L18.9804 5.20827C19.3186 4.96419 19.4698 4.5358 19.3598 4.13347C19.2497 3.73115 18.9015 3.4394 18.4861 3.4015L13.9347 2.98622L12.0117 0.402888ZM9.82213 4.53862L11.2096 2.67473L12.597 4.53862C12.7667 4.76656 13.0253 4.91155 13.3083 4.93737L15.6428 5.15038L14.1672 6.21525C13.8267 6.46098 13.676 6.89328 13.7899 7.29746L14.31 9.14255L11.5607 8.11157C11.3343 8.02668 11.0848 8.02668 10.8585 8.11157L8.10918 9.14255L8.62927 7.29746C8.7432 6.89328 8.59248 6.46098 8.25196 6.21525L6.77632 5.15038L9.11084 4.93737C9.39382 4.91155 9.65246 4.76656 9.82213 4.53862Z" fill="white"/>
</svg>
