<svg width="24" height="24" viewBox="0 0 24 24" fill="none" xmlns="http://www.w3.org/2000/svg">
<path fill-rule="evenodd" clip-rule="evenodd" d="M23.2912 2.12132L23.9983 1.41421L22.5841 0L21.877 0.707107L0.707105 21.877L0 22.5841L1.41421 23.9983L2.12132 23.2912L6.80188 18.6106L7.77762 19.833C9.35912 21.8161 10.1512 22.807 10.8563 22.5414C11.5628 22.2731 11.5628 20.9832 11.5628 18.4019V13.8497L15.9493 9.46319C16.3426 10.2574 16.5514 11.1242 16.555 12.0067C16.5617 13.6147 15.8868 15.175 14.6523 16.3434C14.2512 16.7231 14.2338 17.356 14.6134 17.7571C14.9931 18.1582 15.626 18.1756 16.0271 17.796C17.6463 16.2635 18.564 14.1812 18.555 11.9985C18.5492 10.5759 18.1501 9.19888 17.4211 7.99137L19.2261 6.18641C20.4649 7.89636 21.1385 9.91469 21.1472 11.9902C21.1587 14.7353 20.0064 17.3885 17.9161 19.3672C17.5151 19.7469 17.4977 20.3798 17.8774 20.7809C18.2571 21.182 18.89 21.1993 19.2911 20.8196C21.7659 18.4768 23.1611 15.3016 23.1472 11.9819C23.1362 9.36551 22.2509 6.84553 20.6552 4.75725L23.2912 2.12132ZM11.5628 5.59771V8.19715L3.79394 15.966L2.39759 15.6739C2.12305 15.6167 1.86302 15.5001 1.63421 15.3316C1.40539 15.1631 1.21419 14.9465 1.0703 14.6957C0.602382 13.8809 0.355213 12.9486 0.355213 11.9984C0.355213 11.0483 0.602382 10.116 1.0703 9.30118C1.21419 9.05035 1.40673 8.83373 1.63555 8.66525C1.86436 8.49678 2.12439 8.38016 2.39892 8.32291L4.66413 7.84914C4.79922 7.8212 4.92106 7.74573 5.00933 7.63532L7.77628 4.16523C9.35778 2.18073 10.1499 1.18988 10.855 1.45681C11.5628 1.72374 11.5628 3.01506 11.5628 5.59771Z" fill="white"/>
</svg>
