<svg width="25" height="30" viewBox="0 0 25 30" fill="none" xmlns="http://www.w3.org/2000/svg">
<path fill-rule="evenodd" clip-rule="evenodd" d="M10 0C10.5523 0 11 0.447715 11 1V2.59815C11.4885 2.54009 11.9857 2.51022 12.4898 2.51022C13.0009 2.51022 13.5049 2.54093 14 2.60059V1C14 0.447715 14.4477 0 15 0C15.5523 0 16 0.447715 16 1V3.01024C21.1891 4.52692 24.9796 9.32081 24.9796 15C24.9796 20.6792 21.1891 25.4731 16 26.9898V29C16 29.5523 15.5523 30 15 30C14.4477 30 14 29.5523 14 29V27.3994C13.5049 27.4591 13.0009 27.4898 12.4898 27.4898C11.9857 27.4898 11.4885 27.4599 11 27.4019V29C11 29.5523 10.5523 30 10 30C9.44771 30 9 29.5523 9 29V26.9957C3.80044 25.4857 0 20.6867 0 15C0 9.31337 3.80044 4.51435 9 3.00429V1C9 0.447715 9.44771 0 10 0ZM16 24.8881C20.0671 23.4442 22.9796 19.5623 22.9796 15C22.9796 10.4378 20.0671 6.55579 16 5.11193V24.8881ZM14 4.61813V25.3819C13.5069 25.453 13.0026 25.4898 12.4898 25.4898C11.984 25.4898 11.4866 25.454 11 25.3848V4.6152C11.4866 4.54601 11.984 4.51022 12.4898 4.51022C13.0026 4.51022 13.5069 4.54702 14 4.61813ZM2 15C2 10.4302 4.92224 6.54281 9 5.10471V24.8953C4.92224 23.4572 2 19.5699 2 15Z" fill="white"/>
</svg>
