<svg width="36" height="24" viewBox="0 0 36 24" fill="none" xmlns="http://www.w3.org/2000/svg">
<path d="M6.81007 14.0877C6.71749 14.0218 6.60632 13.9849 6.49149 13.9821C6.37666 13.9792 6.26368 14.0105 6.16774 14.0718C6.0718 14.133 5.9975 14.2213 5.95483 14.3247C5.91215 14.4281 5.90315 14.5417 5.92902 14.6502C7.17712 19.9964 12.1153 24 18.0007 24C19.2505 24.0004 20.4931 23.8165 21.6859 23.4545C21.796 23.4216 21.893 23.3568 21.9638 23.2687C22.0346 23.1806 22.0759 23.0735 22.0819 22.962C22.088 22.8504 22.0586 22.7398 21.9977 22.645C21.9368 22.5502 21.8474 22.4758 21.7415 22.4318C19.1059 21.3054 16.536 20.0396 14.0434 18.6402C11.5488 17.2512 9.13411 15.7315 6.81007 14.0877ZM34.6457 17.6939C34.3511 17.3134 34.0051 16.9139 33.612 16.4986C33.4836 16.3615 33.3209 16.2586 33.1396 16.2001C32.9583 16.1416 32.7645 16.1293 32.5769 16.1644C32.3892 16.1996 32.2141 16.2809 32.0683 16.4007C31.9225 16.5205 31.811 16.6747 31.7445 16.8484C31.7445 16.8593 31.7367 16.8695 31.7325 16.8805C31.6624 17.0651 31.646 17.2649 31.6851 17.458C31.7241 17.6511 31.8172 17.8301 31.954 17.9755C33.553 19.68 33.8117 20.6011 33.7456 20.7955C33.605 20.9475 32.5468 21.2652 29.6568 20.5548C29.2429 20.453 28.7901 20.3289 28.2983 20.1825C27.9815 20.088 27.6582 19.9859 27.3287 19.8764C27.8464 19.3007 28.3064 18.6785 28.7027 18.0184C28.7146 17.9986 28.7273 17.9789 28.7392 17.9584C29.8126 16.1452 30.3771 14.0907 30.3762 12C30.3764 11.5673 30.353 11.1348 30.3058 10.7045C29.6329 4.69296 24.3712 1.89361e-06 18.0007 1.89361e-06C15.2977 -0.00147269 12.669 0.858302 10.5192 2.44705C9.21616 3.40871 8.12116 4.60973 7.29665 5.98159C7.2854 6.00137 7.27274 6.02114 7.26079 6.04091C6.86893 6.70288 6.54329 7.39969 6.28833 8.12182C6.02629 7.90046 5.77339 7.68068 5.52963 7.4625C5.15064 7.12159 4.81453 6.80591 4.51569 6.50796C2.43648 4.44477 2.18897 3.39818 2.25436 3.20455C2.39499 3.0525 3.34706 2.80432 5.67308 3.29386C5.87194 3.33627 6.07899 3.32493 6.27167 3.26109C6.46434 3.19725 6.63525 3.08336 6.76577 2.93182L6.79109 2.90182C6.91241 2.76045 6.99422 2.59123 7.02869 2.41038C7.06315 2.22953 7.04911 2.04312 6.9879 1.86905C6.9267 1.69498 6.82039 1.53908 6.67917 1.41631C6.53795 1.29354 6.36657 1.20802 6.18146 1.16796C5.62938 1.04666 5.07129 0.952675 4.50936 0.886365C2.34929 0.645684 0.935251 1.05818 0.305932 2.11364C0.0781113 2.49409 -0.140568 3.1425 0.114675 4.06364C0.492267 5.43137 1.8381 7.09091 3.74293 8.82955C4.34975 9.38387 5.01282 9.94568 5.72019 10.5095C6.23489 10.9186 6.77491 11.3318 7.3304 11.7423C7.7012 12.015 8.07973 12.2877 8.46599 12.5605C8.85225 12.8332 9.24367 13.1009 9.64025 13.3636C11.427 14.5643 13.3149 15.7173 15.1663 16.7516C15.8385 17.127 16.5098 17.4907 17.1801 17.8425C17.8505 18.1943 18.5154 18.5309 19.175 18.8523C20.7149 19.6023 22.2231 20.2786 23.6653 20.8589C24.2836 21.108 24.8885 21.3389 25.4801 21.5516C26.3162 21.853 27.1234 22.1182 27.8926 22.3418L27.97 22.3643C29.7792 22.8866 31.3043 23.1614 32.5039 23.1825H32.6262C34.1478 23.1825 35.1787 22.7475 35.6906 21.887C36.3297 20.822 35.9774 19.4107 34.6457 17.6939Z" fill="white"/>
</svg>
