<svg width="25" height="24" viewBox="0 0 25 24" fill="none" xmlns="http://www.w3.org/2000/svg">
<path d="M19.2 4.80001C18.54 4.80001 17.9752 4.56521 17.5056 4.09561C17.036 3.62601 16.8008 3.06081 16.8 2.40001C16.7992 1.73921 17.0344 1.17441 17.5056 0.705608C17.9768 0.236808 18.5416 0.00160811 19.2 8.1081e-06C19.8584 -0.00159189 20.4236 0.233608 20.8956 0.705608C21.3676 1.17761 21.6024 1.74241 21.6 2.40001C21.5976 3.05761 21.3628 3.62281 20.8956 4.09561C20.4284 4.56841 19.8632 4.80321 19.2 4.80001ZM18 24V14.4C18 13.6 17.7948 12.88 17.3844 12.24C16.974 11.6 16.4492 11.1 15.81 10.74L16.86 7.65001C17.02 7.15001 17.3152 6.75001 17.7456 6.45001C18.176 6.15001 18.6608 6.00001 19.2 6.00001C19.7392 6.00001 20.2244 6.15001 20.6556 6.45001C21.0868 6.75001 21.3816 7.15001 21.54 7.65001L24.6 16.8H21.6V24H18ZM12.6 11.4C12.1 11.4 11.6752 11.2252 11.3256 10.8756C10.976 10.526 10.8008 10.1008 10.8 9.6C10.7992 9.09921 10.9744 8.6744 11.3256 8.3256C11.6768 7.9768 12.1016 7.80161 12.6 7.80001C13.0984 7.79841 13.5236 7.9736 13.8756 8.3256C14.2276 8.6776 14.4024 9.1024 14.4 9.6C14.3976 10.0976 14.2228 10.5228 13.8756 10.8756C13.5284 11.2284 13.1032 11.4032 12.6 11.4ZM4.2 4.80001C3.54 4.80001 2.9752 4.56521 2.5056 4.09561C2.036 3.62601 1.8008 3.06081 1.8 2.40001C1.7992 1.73921 2.0344 1.17441 2.5056 0.705608C2.9768 0.236808 3.5416 0.00160811 4.2 8.1081e-06C4.8584 -0.00159189 5.4236 0.233608 5.8956 0.705608C6.3676 1.17761 6.6024 1.74241 6.6 2.40001C6.5976 3.05761 6.3628 3.62281 5.8956 4.09561C5.4284 4.56841 4.8632 4.80321 4.2 4.80001ZM1.8 24V15.6H0V8.40001C0 7.74001 0.2352 7.17521 0.7056 6.70561C1.176 6.23601 1.7408 6.00081 2.4 6.00001H6C6.66 6.00001 7.2252 6.23521 7.6956 6.70561C8.166 7.17601 8.4008 7.74081 8.4 8.40001V15.6H6.6V24H1.8ZM10.8 24V19.2H9.6V14.4C9.6 13.9 9.7752 13.4752 10.1256 13.1256C10.476 12.776 10.9008 12.6008 11.4 12.6H13.8C14.3 12.6 14.7252 12.7752 15.0756 13.1256C15.426 13.476 15.6008 13.9008 15.6 14.4V19.2H14.4V24H10.8Z" fill="white"/>
</svg>
